<svg width="3198" height="798" viewBox="0 0 3198 798" fill="none" xmlns="http://www.w3.org/2000/svg">
<rect width="3198" height="798" fill="#242424"/>
<path d="M137.456 170.64C134.469 170.64 131.845 170.085 129.584 168.976C127.365 167.824 125.637 166.224 124.4 164.176C123.205 162.085 122.608 159.632 122.608 156.816V136.464C122.608 133.605 123.205 131.152 124.4 129.104C125.637 127.056 127.365 125.477 129.584 124.368C131.845 123.216 134.469 122.64 137.456 122.64C140.485 122.64 143.088 123.216 145.264 124.368C147.483 125.477 149.211 127.056 150.448 129.104C151.685 131.152 152.304 133.605 152.304 136.464H144.24C144.24 134.245 143.643 132.56 142.448 131.408C141.296 130.256 139.632 129.68 137.456 129.68C135.28 129.68 133.595 130.256 132.4 131.408C131.205 132.56 130.608 134.224 130.608 136.4V156.816C130.608 158.992 131.205 160.677 132.4 161.872C133.595 163.024 135.28 163.6 137.456 163.6C139.632 163.6 141.296 163.024 142.448 161.872C143.643 160.677 144.24 158.992 144.24 156.816H152.304C152.304 159.589 151.685 162.021 150.448 164.112C149.211 166.203 147.483 167.824 145.264 168.976C143.088 170.085 140.485 170.64 137.456 170.64ZM156.055 170L167.831 123.28H178.135L189.975 170H181.783L179.223 158.672H166.807L164.247 170H156.055ZM168.279 152.144H177.751L174.935 139.6C174.466 137.509 174.06 135.632 173.719 133.968C173.378 132.261 173.143 131.024 173.015 130.256C172.887 131.024 172.652 132.261 172.311 133.968C172.012 135.632 171.607 137.488 171.095 139.536L168.279 152.144ZM193.214 170V123.28H202.686L207.23 138.128C207.699 139.621 208.083 140.987 208.382 142.224C208.681 143.461 208.873 144.357 208.958 144.912C209.043 144.357 209.235 143.461 209.534 142.224C209.833 140.987 210.195 139.621 210.622 138.128L214.974 123.28H224.446V170H216.958V155.472C216.958 153.339 217.022 151.013 217.15 148.496C217.278 145.979 217.427 143.461 217.598 140.944C217.769 138.427 217.961 136.037 218.174 133.776C218.43 131.515 218.643 129.531 218.814 127.824L212.542 149.904H205.246L198.782 127.824C198.995 129.445 199.209 131.365 199.422 133.584C199.635 135.76 199.827 138.107 199.998 140.624C200.211 143.099 200.382 145.616 200.51 148.176C200.638 150.736 200.702 153.168 200.702 155.472V170H193.214ZM227.685 170L239.461 123.28H249.765L261.605 170H253.413L250.853 158.672H238.437L235.877 170H227.685ZM239.909 152.144H249.381L246.565 139.6C246.096 137.509 245.69 135.632 245.349 133.968C245.008 132.261 244.773 131.024 244.645 130.256C244.517 131.024 244.282 132.261 243.941 133.968C243.642 135.632 243.237 137.488 242.725 139.536L239.909 152.144ZM266.06 170V123.28H279.948C283.105 123.28 285.836 123.877 288.14 125.072C290.487 126.267 292.3 127.952 293.58 130.128C294.86 132.304 295.5 134.885 295.5 137.872V155.344C295.5 158.288 294.86 160.869 293.58 163.088C292.3 165.264 290.487 166.971 288.14 168.208C285.836 169.403 283.105 170 279.948 170H266.06ZM274.06 162.64H279.948C282.252 162.64 284.087 162 285.452 160.72C286.817 159.397 287.5 157.605 287.5 155.344V137.872C287.5 135.653 286.817 133.904 285.452 132.624C284.087 131.301 282.252 130.64 279.948 130.64H274.06V162.64ZM316.275 170.64C313.288 170.64 310.686 170.085 308.467 168.976C306.291 167.824 304.606 166.224 303.411 164.176C302.259 162.085 301.683 159.632 301.683 156.816V136.464C301.683 133.648 302.259 131.216 303.411 129.168C304.606 127.077 306.291 125.477 308.467 124.368C310.686 123.216 313.288 122.64 316.275 122.64C319.304 122.64 321.907 123.216 324.083 124.368C326.259 125.477 327.923 127.077 329.075 129.168C330.27 131.216 330.867 133.627 330.867 136.4V156.816C330.867 159.632 330.27 162.085 329.075 164.176C327.923 166.224 326.259 167.824 324.083 168.976C321.907 170.085 319.304 170.64 316.275 170.64ZM316.275 163.6C318.451 163.6 320.094 163.024 321.203 161.872C322.312 160.677 322.867 158.992 322.867 156.816V136.464C322.867 134.245 322.312 132.56 321.203 131.408C320.094 130.256 318.451 129.68 316.275 129.68C314.099 129.68 312.456 130.256 311.347 131.408C310.238 132.56 309.683 134.245 309.683 136.464V156.816C309.683 158.992 310.238 160.677 311.347 161.872C312.499 163.024 314.142 163.6 316.275 163.6Z" fill="#03BFF3"/>
<path d="M122.608 338V291.28H132.4L145.392 329.04C145.264 327.675 145.115 326.075 144.944 324.24C144.816 322.363 144.709 320.464 144.624 318.544C144.539 316.581 144.496 314.875 144.496 313.424V291.28H151.792V338H142L129.136 300.24C129.221 301.477 129.328 302.971 129.456 304.72C129.584 306.469 129.691 308.261 129.776 310.096C129.861 311.931 129.904 313.616 129.904 315.152V338H122.608ZM173.015 338.576C170.028 338.576 167.426 338.021 165.207 336.912C163.031 335.76 161.324 334.16 160.087 332.112C158.892 330.021 158.295 327.568 158.295 324.752V316.048C158.295 313.232 158.892 310.8 160.087 308.752C161.324 306.661 163.031 305.061 165.207 303.952C167.426 302.8 170.028 302.224 173.015 302.224C176.044 302.224 178.647 302.8 180.823 303.952C182.999 305.061 184.684 306.661 185.879 308.752C187.116 310.8 187.735 313.211 187.735 315.984V324.752C187.735 327.568 187.116 330.021 185.879 332.112C184.684 334.16 182.999 335.76 180.823 336.912C178.647 338.021 176.044 338.576 173.015 338.576ZM173.015 331.6C175.148 331.6 176.791 331.024 177.943 329.872C179.138 328.677 179.735 326.971 179.735 324.752V316.048C179.735 313.787 179.138 312.08 177.943 310.928C176.791 309.776 175.148 309.2 173.015 309.2C170.924 309.2 169.282 309.776 168.087 310.928C166.892 312.08 166.295 313.787 166.295 316.048V324.752C166.295 326.971 166.892 328.677 168.087 329.872C169.282 331.024 170.924 331.6 173.015 331.6ZM242.725 338.704C237.989 338.704 234.234 337.403 231.461 334.8C228.73 332.155 227.365 328.613 227.365 324.176H235.365C235.365 326.523 236.026 328.357 237.349 329.68C238.672 331.003 240.464 331.664 242.725 331.664C244.986 331.664 246.778 331.024 248.101 329.744C249.424 328.421 250.085 326.587 250.085 324.24V298.704H239.205V291.28H258.085V324.24C258.085 328.72 256.698 332.261 253.925 334.864C251.194 337.424 247.461 338.704 242.725 338.704ZM280.588 338.64C277.388 338.64 274.615 338.107 272.268 337.04C269.921 335.973 268.108 334.459 266.828 332.496C265.591 330.491 264.951 328.144 264.908 325.456H272.908C272.908 327.376 273.591 328.891 274.956 330C276.364 331.067 278.263 331.6 280.652 331.6C282.956 331.6 284.748 331.067 286.028 330C287.351 328.933 288.012 327.461 288.012 325.584C288.012 324.005 287.543 322.64 286.604 321.488C285.708 320.293 284.407 319.483 282.7 319.056L277.324 317.584C273.655 316.645 270.817 314.96 268.812 312.528C266.849 310.096 265.868 307.152 265.868 303.696C265.868 301.051 266.465 298.747 267.66 296.784C268.855 294.821 270.54 293.307 272.716 292.24C274.935 291.173 277.537 290.64 280.524 290.64C285.047 290.64 288.631 291.813 291.276 294.16C293.921 296.464 295.265 299.579 295.308 303.504H287.308C287.308 301.669 286.711 300.24 285.516 299.216C284.321 298.149 282.636 297.616 280.46 297.616C278.369 297.616 276.748 298.107 275.596 299.088C274.444 300.069 273.868 301.456 273.868 303.248C273.868 304.869 274.295 306.256 275.148 307.408C276.044 308.517 277.324 309.307 278.988 309.776L284.556 311.312C288.268 312.251 291.105 313.936 293.068 316.368C295.031 318.757 296.012 321.723 296.012 325.264C296.012 327.909 295.372 330.256 294.092 332.304C292.812 334.309 291.02 335.867 288.716 336.976C286.412 338.085 283.703 338.64 280.588 338.64ZM298.867 338L311.795 314.064L299.635 291.28H308.595L314.483 302.992C314.91 303.845 315.294 304.677 315.635 305.488C315.976 306.256 316.232 306.853 316.403 307.28C316.531 306.853 316.766 306.256 317.107 305.488C317.448 304.677 317.832 303.845 318.259 302.992L324.211 291.28H332.915L320.755 313.872L333.683 338H324.723L318.131 325.072C317.704 324.219 317.299 323.387 316.915 322.576C316.574 321.765 316.318 321.125 316.147 320.656C315.976 321.125 315.72 321.765 315.379 322.576C315.038 323.387 314.654 324.219 314.227 325.072L307.571 338H298.867ZM352.09 338.64C350.255 338.64 348.783 338.107 347.674 337.04C346.607 335.973 346.074 334.523 346.074 332.688C346.074 330.853 346.607 329.403 347.674 328.336C348.783 327.227 350.255 326.672 352.09 326.672C353.925 326.672 355.375 327.227 356.442 328.336C357.551 329.403 358.106 330.853 358.106 332.688C358.106 334.523 357.551 335.973 356.442 337.04C355.375 338.107 353.925 338.64 352.09 338.64ZM122.608 422V375.28H132.4L145.392 413.04C145.264 411.675 145.115 410.075 144.944 408.24C144.816 406.363 144.709 404.464 144.624 402.544C144.539 400.581 144.496 398.875 144.496 397.424V375.28H151.792V422H142L129.136 384.24C129.221 385.477 129.328 386.971 129.456 388.72C129.584 390.469 129.691 392.261 129.776 394.096C129.861 395.931 129.904 397.616 129.904 399.152V422H122.608ZM173.015 422.576C170.028 422.576 167.426 422.021 165.207 420.912C163.031 419.76 161.324 418.16 160.087 416.112C158.892 414.021 158.295 411.568 158.295 408.752V400.048C158.295 397.232 158.892 394.8 160.087 392.752C161.324 390.661 163.031 389.061 165.207 387.952C167.426 386.8 170.028 386.224 173.015 386.224C176.044 386.224 178.647 386.8 180.823 387.952C182.999 389.061 184.684 390.661 185.879 392.752C187.116 394.8 187.735 397.211 187.735 399.984V408.752C187.735 411.568 187.116 414.021 185.879 416.112C184.684 418.16 182.999 419.76 180.823 420.912C178.647 422.021 176.044 422.576 173.015 422.576ZM173.015 415.6C175.148 415.6 176.791 415.024 177.943 413.872C179.138 412.677 179.735 410.971 179.735 408.752V400.048C179.735 397.787 179.138 396.08 177.943 394.928C176.791 393.776 175.148 393.2 173.015 393.2C170.924 393.2 169.282 393.776 168.087 394.928C166.892 396.08 166.295 397.787 166.295 400.048V408.752C166.295 410.971 166.892 412.677 168.087 413.872C169.282 415.024 170.924 415.6 173.015 415.6ZM239.461 422L227.685 375.28H236.005L243.045 405.744C243.429 407.237 243.792 408.837 244.133 410.544C244.474 412.251 244.73 413.637 244.901 414.704C245.072 413.637 245.306 412.251 245.605 410.544C245.904 408.837 246.224 407.216 246.565 405.68L253.541 375.28H261.605L249.829 422H239.461ZM266.124 422V414.704H278.412V394.032H267.724V386.8H286.092V414.704H296.972V422H266.124ZM281.612 380.912C279.991 380.912 278.711 380.507 277.772 379.696C276.833 378.843 276.364 377.712 276.364 376.304C276.364 374.896 276.833 373.787 277.772 372.976C278.711 372.123 279.991 371.696 281.612 371.696C283.233 371.696 284.513 372.123 285.452 372.976C286.391 373.787 286.86 374.896 286.86 376.304C286.86 377.712 286.391 378.843 285.452 379.696C284.513 380.507 283.233 380.912 281.612 380.912ZM303.091 422V386.8H310.643V393.52H312.627L310.259 397.616C310.259 393.819 311.112 390.96 312.819 389.04C314.526 387.12 317.043 386.16 320.371 386.16C324.168 386.16 327.155 387.333 329.331 389.68C331.507 392.027 332.595 395.269 332.595 399.408V401.968H324.211V399.984C324.211 397.723 323.614 395.973 322.419 394.736C321.267 393.499 319.667 392.88 317.619 392.88C315.528 392.88 313.907 393.499 312.755 394.736C311.646 395.973 311.091 397.723 311.091 399.984V422H303.091ZM355.93 422C352.559 422 349.914 421.061 347.994 419.184C346.117 417.307 345.178 414.725 345.178 411.44V394.032H335.642V386.8H345.178V376.88H353.242V386.8H366.746V394.032H353.242V411.44C353.242 413.659 354.33 414.768 356.506 414.768H366.106V422H355.93ZM387.905 422.64C383.425 422.64 379.905 421.403 377.345 418.928C374.785 416.411 373.505 412.997 373.505 408.688V386.8H381.505V408.624C381.505 410.885 382.06 412.635 383.169 413.872C384.278 415.067 385.857 415.664 387.905 415.664C389.91 415.664 391.468 415.067 392.577 413.872C393.729 412.635 394.305 410.885 394.305 408.624V386.8H402.305V408.688C402.305 412.997 401.004 416.411 398.401 418.928C395.798 421.403 392.3 422.64 387.905 422.64ZM419.816 422.64C416.189 422.64 413.331 421.68 411.24 419.76C409.149 417.84 408.104 415.259 408.104 412.016C408.104 408.56 409.256 405.893 411.56 404.016C413.864 402.139 417.128 401.2 421.352 401.2H430.12V398.192C430.12 396.485 429.565 395.163 428.456 394.224C427.347 393.243 425.832 392.752 423.912 392.752C422.163 392.752 420.712 393.136 419.56 393.904C418.408 394.672 417.725 395.717 417.512 397.04H409.704C410.088 393.712 411.581 391.067 414.184 389.104C416.787 387.141 420.115 386.16 424.168 386.16C428.477 386.16 431.869 387.248 434.344 389.424C436.861 391.557 438.12 394.459 438.12 398.128V422H430.376V415.856H429.096L430.376 414.128C430.376 416.731 429.416 418.8 427.496 420.336C425.576 421.872 423.016 422.64 419.816 422.64ZM422.44 416.624C424.701 416.624 426.536 416.048 427.944 414.896C429.395 413.744 430.12 412.251 430.12 410.416V406.128H421.48C419.859 406.128 418.557 406.597 417.576 407.536C416.595 408.475 416.104 409.712 416.104 411.248C416.104 412.912 416.659 414.235 417.768 415.216C418.92 416.155 420.477 416.624 422.44 416.624ZM464.911 422C462.607 422 460.58 421.531 458.831 420.592C457.124 419.653 455.78 418.331 454.799 416.624C453.818 414.875 453.327 412.869 453.327 410.608V382.512H442.063V375.28H461.327V410.608C461.327 411.888 461.69 412.912 462.415 413.68C463.183 414.405 464.207 414.768 465.487 414.768H476.111V422H464.911ZM516.765 422V375.28H530.653C533.81 375.28 536.541 375.877 538.845 377.072C541.192 378.267 543.005 379.952 544.285 382.128C545.565 384.304 546.205 386.885 546.205 389.872V407.344C546.205 410.288 545.565 412.869 544.285 415.088C543.005 417.264 541.192 418.971 538.845 420.208C536.541 421.403 533.81 422 530.653 422H516.765ZM524.765 414.64H530.653C532.957 414.64 534.792 414 536.157 412.72C537.522 411.397 538.205 409.605 538.205 407.344V389.872C538.205 387.653 537.522 385.904 536.157 384.624C534.792 383.301 532.957 382.64 530.653 382.64H524.765V414.64ZM566.98 422.64C563.993 422.64 561.391 422.085 559.172 420.976C556.996 419.824 555.311 418.224 554.116 416.176C552.964 414.085 552.388 411.632 552.388 408.816V388.464C552.388 385.648 552.964 383.216 554.116 381.168C555.311 379.077 556.996 377.477 559.172 376.368C561.391 375.216 563.993 374.64 566.98 374.64C570.009 374.64 572.612 375.216 574.788 376.368C576.964 377.477 578.628 379.077 579.78 381.168C580.975 383.216 581.572 385.627 581.572 388.4V408.816C581.572 411.632 580.975 414.085 579.78 416.176C578.628 418.224 576.964 419.824 574.788 420.976C572.612 422.085 570.009 422.64 566.98 422.64ZM566.98 415.6C569.156 415.6 570.799 415.024 571.908 413.872C573.017 412.677 573.572 410.992 573.572 408.816V388.464C573.572 386.245 573.017 384.56 571.908 383.408C570.799 382.256 569.156 381.68 566.98 381.68C564.804 381.68 563.161 382.256 562.052 383.408C560.943 384.56 560.388 386.245 560.388 388.464V408.816C560.388 410.992 560.943 412.677 562.052 413.872C563.204 415.024 564.847 415.6 566.98 415.6ZM587.179 422V375.28H596.651L601.195 390.128C601.664 391.621 602.048 392.987 602.347 394.224C602.646 395.461 602.838 396.357 602.923 396.912C603.008 396.357 603.2 395.461 603.499 394.224C603.798 392.987 604.16 391.621 604.587 390.128L608.939 375.28H618.411V422H610.923V407.472C610.923 405.339 610.987 403.013 611.115 400.496C611.243 397.979 611.392 395.461 611.563 392.944C611.734 390.427 611.926 388.037 612.139 385.776C612.395 383.515 612.608 381.531 612.779 379.824L606.507 401.904H599.211L592.747 379.824C592.96 381.445 593.174 383.365 593.387 385.584C593.6 387.76 593.792 390.107 593.963 392.624C594.176 395.099 594.347 397.616 594.475 400.176C594.603 402.736 594.667 405.168 594.667 407.472V422H587.179ZM638.61 422.64C636.775 422.64 635.303 422.107 634.194 421.04C633.127 419.973 632.594 418.523 632.594 416.688C632.594 414.853 633.127 413.403 634.194 412.336C635.303 411.227 636.775 410.672 638.61 410.672C640.445 410.672 641.895 411.227 642.962 412.336C644.071 413.403 644.626 414.853 644.626 416.688C644.626 418.523 644.071 419.973 642.962 421.04C641.895 422.107 640.445 422.64 638.61 422.64ZM122.608 506V459.28H132.4L145.392 497.04C145.264 495.675 145.115 494.075 144.944 492.24C144.816 490.363 144.709 488.464 144.624 486.544C144.539 484.581 144.496 482.875 144.496 481.424V459.28H151.792V506H142L129.136 468.24C129.221 469.477 129.328 470.971 129.456 472.72C129.584 474.469 129.691 476.261 129.776 478.096C129.861 479.931 129.904 481.616 129.904 483.152V506H122.608ZM173.015 506.576C170.028 506.576 167.426 506.021 165.207 504.912C163.031 503.76 161.324 502.16 160.087 500.112C158.892 498.021 158.295 495.568 158.295 492.752V484.048C158.295 481.232 158.892 478.8 160.087 476.752C161.324 474.661 163.031 473.061 165.207 471.952C167.426 470.8 170.028 470.224 173.015 470.224C176.044 470.224 178.647 470.8 180.823 471.952C182.999 473.061 184.684 474.661 185.879 476.752C187.116 478.8 187.735 481.211 187.735 483.984V492.752C187.735 495.568 187.116 498.021 185.879 500.112C184.684 502.16 182.999 503.76 180.823 504.912C178.647 506.021 176.044 506.576 173.015 506.576ZM173.015 499.6C175.148 499.6 176.791 499.024 177.943 497.872C179.138 496.677 179.735 494.971 179.735 492.752V484.048C179.735 481.787 179.138 480.08 177.943 478.928C176.791 477.776 175.148 477.2 173.015 477.2C170.924 477.2 169.282 477.776 168.087 478.928C166.892 480.08 166.295 481.787 166.295 484.048V492.752C166.295 494.971 166.892 496.677 168.087 497.872C169.282 499.024 170.924 499.6 173.015 499.6ZM240.613 506V466.704H228.389V459.28H260.901V466.704H248.677V506H240.613ZM280.524 506.64C277.537 506.64 274.935 506.064 272.716 504.912C270.497 503.76 268.769 502.16 267.532 500.112C266.337 498.021 265.74 495.589 265.74 492.816V483.984C265.74 481.211 266.337 478.8 267.532 476.752C268.769 474.661 270.497 473.04 272.716 471.888C274.935 470.736 277.537 470.16 280.524 470.16C283.468 470.16 286.028 470.736 288.204 471.888C290.423 473.04 292.129 474.661 293.324 476.752C294.561 478.8 295.18 481.211 295.18 483.984V490.32H273.484V492.816C273.484 495.291 274.081 497.168 275.276 498.448C276.471 499.685 278.241 500.304 280.588 500.304C282.38 500.304 283.831 500.005 284.94 499.408C286.049 498.768 286.753 497.851 287.052 496.656H294.924C294.327 499.685 292.705 502.117 290.06 503.952C287.457 505.744 284.279 506.64 280.524 506.64ZM287.436 485.84V483.92C287.436 481.488 286.86 479.632 285.708 478.352C284.556 477.029 282.828 476.368 280.524 476.368C278.22 476.368 276.471 477.029 275.276 478.352C274.081 479.675 273.484 481.552 273.484 483.984V485.328L288.012 485.2L287.436 485.84ZM300.403 506V470.8H306.931V475.536H308.275L307.187 476.688C307.187 474.725 307.742 473.147 308.851 471.952C309.96 470.757 311.39 470.16 313.139 470.16C315.016 470.16 316.467 470.928 317.491 472.464C318.558 474 319.091 476.069 319.091 478.672L317.683 475.536H319.859L319.027 476.688C319.027 474.725 319.582 473.147 320.691 471.952C321.8 470.757 323.272 470.16 325.107 470.16C327.283 470.16 329.011 470.971 330.291 472.592C331.571 474.213 332.211 476.411 332.211 479.184V506H325.171V479.504C325.171 478.352 324.915 477.456 324.403 476.816C323.891 476.133 323.144 475.792 322.163 475.792C321.224 475.792 320.478 476.112 319.923 476.752C319.411 477.392 319.155 478.309 319.155 479.504V506H313.395V479.504C313.395 478.309 313.139 477.392 312.627 476.752C312.115 476.112 311.368 475.792 310.387 475.792C309.406 475.792 308.659 476.112 308.147 476.752C307.678 477.392 307.443 478.309 307.443 479.504V506H300.403ZM337.818 517.52V470.8H345.626V477.52H347.418L345.626 479.376C345.626 476.517 346.479 474.277 348.186 472.656C349.893 470.992 352.197 470.16 355.098 470.16C358.639 470.16 361.477 471.376 363.61 473.808C365.743 476.24 366.81 479.504 366.81 483.6V493.136C366.81 495.867 366.319 498.256 365.338 500.304C364.399 502.309 363.055 503.867 361.306 504.976C359.557 506.085 357.487 506.64 355.098 506.64C352.197 506.64 349.893 505.829 348.186 504.208C346.479 502.544 345.626 500.283 345.626 497.424L347.418 499.28H345.562L345.818 507.664V517.52H337.818ZM352.282 499.728C354.33 499.728 355.93 499.131 357.082 497.936C358.234 496.741 358.81 495.035 358.81 492.816V483.984C358.81 481.765 358.234 480.059 357.082 478.864C355.93 477.669 354.33 477.072 352.282 477.072C350.277 477.072 348.698 477.691 347.546 478.928C346.394 480.123 345.818 481.808 345.818 483.984V492.816C345.818 494.992 346.394 496.699 347.546 497.936C348.698 499.131 350.277 499.728 352.282 499.728ZM393.281 506C390.977 506 388.95 505.531 387.201 504.592C385.494 503.653 384.15 502.331 383.169 500.624C382.188 498.875 381.697 496.869 381.697 494.608V466.512H370.433V459.28H389.697V494.608C389.697 495.888 390.06 496.912 390.785 497.68C391.553 498.405 392.577 498.768 393.857 498.768H404.481V506H393.281ZM419.816 506.64C416.189 506.64 413.331 505.68 411.24 503.76C409.149 501.84 408.104 499.259 408.104 496.016C408.104 492.56 409.256 489.893 411.56 488.016C413.864 486.139 417.128 485.2 421.352 485.2H430.12V482.192C430.12 480.485 429.565 479.163 428.456 478.224C427.347 477.243 425.832 476.752 423.912 476.752C422.163 476.752 420.712 477.136 419.56 477.904C418.408 478.672 417.725 479.717 417.512 481.04H409.704C410.088 477.712 411.581 475.067 414.184 473.104C416.787 471.141 420.115 470.16 424.168 470.16C428.477 470.16 431.869 471.248 434.344 473.424C436.861 475.557 438.12 478.459 438.12 482.128V506H430.376V499.856H429.096L430.376 498.128C430.376 500.731 429.416 502.8 427.496 504.336C425.576 505.872 423.016 506.64 419.816 506.64ZM422.44 500.624C424.701 500.624 426.536 500.048 427.944 498.896C429.395 497.744 430.12 496.251 430.12 494.416V490.128H421.48C419.859 490.128 418.557 490.597 417.576 491.536C416.595 492.475 416.104 493.712 416.104 495.248C416.104 496.912 416.659 498.235 417.768 499.216C418.92 500.155 420.477 500.624 422.44 500.624ZM463.375 506C460.004 506 457.359 505.061 455.439 503.184C453.562 501.307 452.623 498.725 452.623 495.44V478.032H443.087V470.8H452.623V460.88H460.687V470.8H474.191V478.032H460.687V495.44C460.687 497.659 461.775 498.768 463.951 498.768H473.551V506H463.375ZM495.414 506.64C492.427 506.64 489.825 506.064 487.606 504.912C485.387 503.76 483.659 502.16 482.422 500.112C481.227 498.021 480.63 495.589 480.63 492.816V483.984C480.63 481.211 481.227 478.8 482.422 476.752C483.659 474.661 485.387 473.04 487.606 471.888C489.825 470.736 492.427 470.16 495.414 470.16C498.358 470.16 500.918 470.736 503.094 471.888C505.313 473.04 507.019 474.661 508.214 476.752C509.451 478.8 510.07 481.211 510.07 483.984V490.32H488.374V492.816C488.374 495.291 488.971 497.168 490.166 498.448C491.361 499.685 493.131 500.304 495.478 500.304C497.27 500.304 498.721 500.005 499.83 499.408C500.939 498.768 501.643 497.851 501.942 496.656H509.814C509.217 499.685 507.595 502.117 504.95 503.952C502.347 505.744 499.169 506.64 495.414 506.64ZM502.326 485.84V483.92C502.326 481.488 501.75 479.632 500.598 478.352C499.446 477.029 497.718 476.368 495.414 476.368C493.11 476.368 491.361 477.029 490.166 478.352C488.971 479.675 488.374 481.552 488.374 483.984V485.328L502.902 485.2L502.326 485.84ZM567.236 506.64C564.249 506.64 561.625 506.085 559.364 504.976C557.145 503.824 555.417 502.224 554.18 500.176C552.985 498.085 552.388 495.632 552.388 492.816V472.464C552.388 469.605 552.985 467.152 554.18 465.104C555.417 463.056 557.145 461.477 559.364 460.368C561.625 459.216 564.249 458.64 567.236 458.64C570.265 458.64 572.868 459.216 575.044 460.368C577.263 461.477 578.991 463.056 580.228 465.104C581.465 467.152 582.084 469.605 582.084 472.464H574.02C574.02 470.245 573.423 468.56 572.228 467.408C571.076 466.256 569.412 465.68 567.236 465.68C565.06 465.68 563.375 466.256 562.18 467.408C560.985 468.56 560.388 470.224 560.388 472.4V492.816C560.388 494.992 560.985 496.677 562.18 497.872C563.375 499.024 565.06 499.6 567.236 499.6C569.412 499.6 571.076 499.024 572.228 497.872C573.423 496.677 574.02 494.992 574.02 492.816H582.084C582.084 495.589 581.465 498.021 580.228 500.112C578.991 502.203 577.263 503.824 575.044 504.976C572.868 506.085 570.265 506.64 567.236 506.64ZM602.795 506.576C599.808 506.576 597.206 506.021 594.987 504.912C592.811 503.76 591.104 502.16 589.867 500.112C588.672 498.021 588.075 495.568 588.075 492.752V484.048C588.075 481.232 588.672 478.8 589.867 476.752C591.104 474.661 592.811 473.061 594.987 471.952C597.206 470.8 599.808 470.224 602.795 470.224C605.824 470.224 608.427 470.8 610.603 471.952C612.779 473.061 614.464 474.661 615.659 476.752C616.896 478.8 617.515 481.211 617.515 483.984V492.752C617.515 495.568 616.896 498.021 615.659 500.112C614.464 502.16 612.779 503.76 610.603 504.912C608.427 506.021 605.824 506.576 602.795 506.576ZM602.795 499.6C604.928 499.6 606.571 499.024 607.723 497.872C608.918 496.677 609.515 494.971 609.515 492.752V484.048C609.515 481.787 608.918 480.08 607.723 478.928C606.571 477.776 604.928 477.2 602.795 477.2C600.704 477.2 599.062 477.776 597.867 478.928C596.672 480.08 596.075 481.787 596.075 484.048V492.752C596.075 494.971 596.672 496.677 597.867 497.872C599.062 499.024 600.704 499.6 602.795 499.6ZM622.738 506V470.8H629.266V475.536H630.61L629.522 476.688C629.522 474.725 630.077 473.147 631.186 471.952C632.295 470.757 633.725 470.16 635.474 470.16C637.351 470.16 638.802 470.928 639.826 472.464C640.893 474 641.426 476.069 641.426 478.672L640.018 475.536H642.194L641.362 476.688C641.362 474.725 641.917 473.147 643.026 471.952C644.135 470.757 645.607 470.16 647.442 470.16C649.618 470.16 651.346 470.971 652.626 472.592C653.906 474.213 654.546 476.411 654.546 479.184V506H647.506V479.504C647.506 478.352 647.25 477.456 646.738 476.816C646.226 476.133 645.479 475.792 644.498 475.792C643.559 475.792 642.813 476.112 642.258 476.752C641.746 477.392 641.49 478.309 641.49 479.504V506H635.73V479.504C635.73 478.309 635.474 477.392 634.962 476.752C634.45 476.112 633.703 475.792 632.722 475.792C631.741 475.792 630.994 476.112 630.482 476.752C630.013 477.392 629.778 478.309 629.778 479.504V506H622.738ZM660.153 517.52V470.8H667.961V477.52H669.753L667.961 479.376C667.961 476.517 668.814 474.277 670.521 472.656C672.228 470.992 674.532 470.16 677.433 470.16C680.974 470.16 683.812 471.376 685.945 473.808C688.078 476.24 689.145 479.504 689.145 483.6V493.136C689.145 495.867 688.654 498.256 687.673 500.304C686.734 502.309 685.39 503.867 683.641 504.976C681.892 506.085 679.822 506.64 677.433 506.64C674.532 506.64 672.228 505.829 670.521 504.208C668.814 502.544 667.961 500.283 667.961 497.424L669.753 499.28H667.897L668.153 507.664V517.52H660.153ZM674.617 499.728C676.665 499.728 678.265 499.131 679.417 497.936C680.569 496.741 681.145 495.035 681.145 492.816V483.984C681.145 481.765 680.569 480.059 679.417 478.864C678.265 477.669 676.665 477.072 674.617 477.072C672.612 477.072 671.033 477.691 669.881 478.928C668.729 480.123 668.153 481.808 668.153 483.984V492.816C668.153 494.992 668.729 496.699 669.881 497.936C671.033 499.131 672.612 499.728 674.617 499.728ZM695.904 506V498.704H708.192V478.032H697.504V470.8H715.872V498.704H726.752V506H695.904ZM711.392 464.912C709.771 464.912 708.491 464.507 707.552 463.696C706.613 462.843 706.144 461.712 706.144 460.304C706.144 458.896 706.613 457.787 707.552 456.976C708.491 456.123 709.771 455.696 711.392 455.696C713.013 455.696 714.293 456.123 715.232 456.976C716.171 457.787 716.64 458.896 716.64 460.304C716.64 461.712 716.171 462.843 715.232 463.696C714.293 464.507 713.013 464.912 711.392 464.912ZM751.431 506C749.127 506 747.1 505.531 745.351 504.592C743.644 503.653 742.3 502.331 741.319 500.624C740.338 498.875 739.847 496.869 739.847 494.608V466.512H728.583V459.28H747.847V494.608C747.847 495.888 748.21 496.912 748.935 497.68C749.703 498.405 750.727 498.768 752.007 498.768H762.631V506H751.431ZM781.934 506.64C778.947 506.64 776.345 506.064 774.126 504.912C771.907 503.76 770.179 502.16 768.942 500.112C767.747 498.021 767.15 495.589 767.15 492.816V483.984C767.15 481.211 767.747 478.8 768.942 476.752C770.179 474.661 771.907 473.04 774.126 471.888C776.345 470.736 778.947 470.16 781.934 470.16C784.878 470.16 787.438 470.736 789.614 471.888C791.833 473.04 793.539 474.661 794.734 476.752C795.971 478.8 796.59 481.211 796.59 483.984V490.32H774.894V492.816C774.894 495.291 775.491 497.168 776.686 498.448C777.881 499.685 779.651 500.304 781.998 500.304C783.79 500.304 785.241 500.005 786.35 499.408C787.459 498.768 788.163 497.851 788.462 496.656H796.334C795.737 499.685 794.115 502.117 791.47 503.952C788.867 505.744 785.689 506.64 781.934 506.64ZM788.846 485.84V483.92C788.846 481.488 788.27 479.632 787.118 478.352C785.966 477.029 784.238 476.368 781.934 476.368C779.63 476.368 777.881 477.029 776.686 478.352C775.491 479.675 774.894 481.552 774.894 483.984V485.328L789.422 485.2L788.846 485.84ZM804.501 506V470.8H812.053V477.52H814.037L811.669 481.616C811.669 477.819 812.522 474.96 814.229 473.04C815.936 471.12 818.453 470.16 821.781 470.16C825.578 470.16 828.565 471.333 830.741 473.68C832.917 476.027 834.005 479.269 834.005 483.408V485.968H825.621V483.984C825.621 481.723 825.024 479.973 823.829 478.736C822.677 477.499 821.077 476.88 819.029 476.88C816.938 476.88 815.317 477.499 814.165 478.736C813.056 479.973 812.501 481.723 812.501 483.984V506H804.501ZM853.5 506.64C851.665 506.64 850.193 506.107 849.084 505.04C848.017 503.973 847.484 502.523 847.484 500.688C847.484 498.853 848.017 497.403 849.084 496.336C850.193 495.227 851.665 494.672 853.5 494.672C855.335 494.672 856.785 495.227 857.852 496.336C858.961 497.403 859.516 498.853 859.516 500.688C859.516 502.523 858.961 503.973 857.852 505.04C856.785 506.107 855.335 506.64 853.5 506.64ZM135.28 674.704C130.544 674.704 126.789 673.403 124.016 670.8C121.285 668.155 119.92 664.613 119.92 660.176H127.92C127.92 662.523 128.581 664.357 129.904 665.68C131.227 667.003 133.019 667.664 135.28 667.664C137.541 667.664 139.333 667.024 140.656 665.744C141.979 664.421 142.64 662.587 142.64 660.24V634.704H131.76V627.28H150.64V660.24C150.64 664.72 149.253 668.261 146.48 670.864C143.749 673.424 140.016 674.704 135.28 674.704ZM173.015 674.64C168.535 674.64 165.015 673.403 162.455 670.928C159.895 668.411 158.615 664.997 158.615 660.688V638.8H166.615V660.624C166.615 662.885 167.17 664.635 168.279 665.872C169.388 667.067 170.967 667.664 173.015 667.664C175.02 667.664 176.578 667.067 177.687 665.872C178.839 664.635 179.415 662.885 179.415 660.624V638.8H187.415V660.688C187.415 664.997 186.114 668.411 183.511 670.928C180.908 673.403 177.41 674.64 173.015 674.64ZM207.486 674.576C204.798 674.576 202.451 674.149 200.446 673.296C198.441 672.443 196.862 671.269 195.71 669.776C194.601 668.24 194.003 666.448 193.918 664.4H201.918C202.003 665.509 202.537 666.405 203.518 667.088C204.542 667.771 205.865 668.112 207.486 668.112H210.302C212.265 668.112 213.737 667.728 214.718 666.96C215.699 666.192 216.19 665.147 216.19 663.824C216.19 662.587 215.742 661.627 214.846 660.944C213.993 660.219 212.649 659.749 210.814 659.536L206.462 658.896C202.451 658.341 199.507 657.275 197.63 655.696C195.753 654.117 194.814 651.749 194.814 648.592C194.814 645.307 195.923 642.768 198.142 640.976C200.361 639.141 203.625 638.224 207.934 638.224H210.366C214.291 638.224 217.427 639.099 219.774 640.848C222.121 642.597 223.379 644.944 223.55 647.888H215.55C215.422 646.949 214.889 646.181 213.95 645.584C213.054 644.987 211.859 644.688 210.366 644.688H207.934C206.099 644.688 204.755 645.029 203.902 645.712C203.091 646.352 202.686 647.312 202.686 648.592C202.686 649.787 203.049 650.683 203.774 651.28C204.499 651.835 205.673 652.24 207.294 652.496L211.838 653.136C216.019 653.733 219.091 654.864 221.054 656.528C223.059 658.149 224.062 660.56 224.062 663.76C224.062 667.173 222.889 669.84 220.542 671.76C218.238 673.637 214.825 674.576 210.302 674.576H207.486ZM248.485 674C245.114 674 242.469 673.061 240.549 671.184C238.672 669.307 237.733 666.725 237.733 663.44V646.032H228.197V638.8H237.733V628.88H245.797V638.8H259.301V646.032H245.797V663.44C245.797 665.659 246.885 666.768 249.061 666.768H258.661V674H248.485ZM312.243 674V634.704H300.019V627.28H332.531V634.704H320.307V674H312.243ZM343.514 685.52L348.442 672.08L335.322 638.8H344.09L350.618 656.784C350.959 657.765 351.301 658.96 351.642 660.368C351.983 661.733 352.239 662.864 352.41 663.76C352.623 662.864 352.901 661.733 353.242 660.368C353.583 658.96 353.925 657.765 354.266 656.784L360.41 638.8H368.858L351.898 685.52H343.514ZM373.633 685.52V638.8H381.441V645.52H383.233L381.441 647.376C381.441 644.517 382.294 642.277 384.001 640.656C385.708 638.992 388.012 638.16 390.913 638.16C394.454 638.16 397.292 639.376 399.425 641.808C401.558 644.24 402.625 647.504 402.625 651.6V661.136C402.625 663.867 402.134 666.256 401.153 668.304C400.214 670.309 398.87 671.867 397.121 672.976C395.372 674.085 393.302 674.64 390.913 674.64C388.012 674.64 385.708 673.829 384.001 672.208C382.294 670.544 381.441 668.283 381.441 665.424L383.233 667.28H381.377L381.633 675.664V685.52H373.633ZM388.097 667.728C390.145 667.728 391.745 667.131 392.897 665.936C394.049 664.741 394.625 663.035 394.625 660.816V651.984C394.625 649.765 394.049 648.059 392.897 646.864C391.745 645.669 390.145 645.072 388.097 645.072C386.092 645.072 384.513 645.691 383.361 646.928C382.209 648.123 381.633 649.808 381.633 651.984V660.816C381.633 662.992 382.209 664.699 383.361 665.936C384.513 667.131 386.092 667.728 388.097 667.728ZM423.784 674.64C420.797 674.64 418.195 674.064 415.976 672.912C413.757 671.76 412.029 670.16 410.792 668.112C409.597 666.021 409 663.589 409 660.816V651.984C409 649.211 409.597 646.8 410.792 644.752C412.029 642.661 413.757 641.04 415.976 639.888C418.195 638.736 420.797 638.16 423.784 638.16C426.728 638.16 429.288 638.736 431.464 639.888C433.683 641.04 435.389 642.661 436.584 644.752C437.821 646.8 438.44 649.211 438.44 651.984V658.32H416.744V660.816C416.744 663.291 417.341 665.168 418.536 666.448C419.731 667.685 421.501 668.304 423.848 668.304C425.64 668.304 427.091 668.005 428.2 667.408C429.309 666.768 430.013 665.851 430.312 664.656H438.184C437.587 667.685 435.965 670.117 433.32 671.952C430.717 673.744 427.539 674.64 423.784 674.64ZM430.696 653.84V651.92C430.696 649.488 430.12 647.632 428.968 646.352C427.816 645.029 426.088 644.368 423.784 644.368C421.48 644.368 419.731 645.029 418.536 646.352C417.341 647.675 416.744 649.552 416.744 651.984V653.328L431.272 653.2L430.696 653.84ZM459.663 674.64C456.463 674.64 453.69 674.107 451.343 673.04C448.996 671.973 447.183 670.459 445.903 668.496C444.666 666.491 444.026 664.144 443.983 661.456H451.983C451.983 663.376 452.666 664.891 454.031 666C455.439 667.067 457.338 667.6 459.727 667.6C462.031 667.6 463.823 667.067 465.103 666C466.426 664.933 467.087 663.461 467.087 661.584C467.087 660.005 466.618 658.64 465.679 657.488C464.783 656.293 463.482 655.483 461.775 655.056L456.399 653.584C452.73 652.645 449.892 650.96 447.887 648.528C445.924 646.096 444.943 643.152 444.943 639.696C444.943 637.051 445.54 634.747 446.735 632.784C447.93 630.821 449.615 629.307 451.791 628.24C454.01 627.173 456.612 626.64 459.599 626.64C464.122 626.64 467.706 627.813 470.351 630.16C472.996 632.464 474.34 635.579 474.383 639.504H466.383C466.383 637.669 465.786 636.24 464.591 635.216C463.396 634.149 461.711 633.616 459.535 633.616C457.444 633.616 455.823 634.107 454.671 635.088C453.519 636.069 452.943 637.456 452.943 639.248C452.943 640.869 453.37 642.256 454.223 643.408C455.119 644.517 456.399 645.307 458.063 645.776L463.631 647.312C467.343 648.251 470.18 649.936 472.143 652.368C474.106 654.757 475.087 657.723 475.087 661.264C475.087 663.909 474.447 666.256 473.167 668.304C471.887 670.309 470.095 671.867 467.791 672.976C465.487 674.085 462.778 674.64 459.663 674.64ZM495.542 674.64C492.555 674.64 489.931 674.085 487.67 672.976C485.451 671.824 483.723 670.224 482.486 668.176C481.249 666.085 480.63 663.632 480.63 660.816V651.984C480.63 649.125 481.249 646.672 482.486 644.624C483.723 642.576 485.451 640.997 487.67 639.888C489.931 638.736 492.555 638.16 495.542 638.16C499.979 638.16 503.521 639.312 506.166 641.616C508.811 643.877 510.198 646.971 510.326 650.896H502.326C502.198 649.061 501.537 647.653 500.342 646.672C499.19 645.648 497.59 645.136 495.542 645.136C493.409 645.136 491.723 645.733 490.486 646.928C489.249 648.08 488.63 649.744 488.63 651.92V660.816C488.63 662.992 489.249 664.677 490.486 665.872C491.723 667.067 493.409 667.664 495.542 667.664C497.59 667.664 499.19 667.173 500.342 666.192C501.537 665.168 502.198 663.739 502.326 661.904H510.326C510.198 665.829 508.811 668.944 506.166 671.248C503.521 673.509 499.979 674.64 495.542 674.64ZM517.981 674V638.8H525.533V645.52H527.517L525.149 649.616C525.149 645.819 526.002 642.96 527.709 641.04C529.416 639.12 531.933 638.16 535.261 638.16C539.058 638.16 542.045 639.333 544.221 641.68C546.397 644.027 547.485 647.269 547.485 651.408V653.968H539.101V651.984C539.101 649.723 538.504 647.973 537.309 646.736C536.157 645.499 534.557 644.88 532.509 644.88C530.418 644.88 528.797 645.499 527.645 646.736C526.536 647.973 525.981 649.723 525.981 651.984V674H517.981ZM552.644 674V666.704H564.932V646.032H554.244V638.8H572.612V666.704H583.492V674H552.644ZM568.132 632.912C566.511 632.912 565.231 632.507 564.292 631.696C563.353 630.843 562.884 629.712 562.884 628.304C562.884 626.896 563.353 625.787 564.292 624.976C565.231 624.123 566.511 623.696 568.132 623.696C569.753 623.696 571.033 624.123 571.972 624.976C572.911 625.787 573.38 626.896 573.38 628.304C573.38 629.712 572.911 630.843 571.972 631.696C571.033 632.507 569.753 632.912 568.132 632.912ZM588.523 685.52V638.8H596.331V645.52H598.123L596.331 647.376C596.331 644.517 597.184 642.277 598.891 640.656C600.598 638.992 602.902 638.16 605.803 638.16C609.344 638.16 612.182 639.376 614.315 641.808C616.448 644.24 617.515 647.504 617.515 651.6V661.136C617.515 663.867 617.024 666.256 616.043 668.304C615.104 670.309 613.76 671.867 612.011 672.976C610.262 674.085 608.192 674.64 605.803 674.64C602.902 674.64 600.598 673.829 598.891 672.208C597.184 670.544 596.331 668.283 596.331 665.424L598.123 667.28H596.267L596.523 675.664V685.52H588.523ZM602.987 667.728C605.035 667.728 606.635 667.131 607.787 665.936C608.939 664.741 609.515 663.035 609.515 660.816V651.984C609.515 649.765 608.939 648.059 607.787 646.864C606.635 645.669 605.035 645.072 602.987 645.072C600.982 645.072 599.403 645.691 598.251 646.928C597.099 648.123 596.523 649.808 596.523 651.984V660.816C596.523 662.992 597.099 664.699 598.251 665.936C599.403 667.131 600.982 667.728 602.987 667.728ZM642.45 674C639.079 674 636.434 673.061 634.514 671.184C632.637 669.307 631.698 666.725 631.698 663.44V646.032H622.162V638.8H631.698V628.88H639.762V638.8H653.266V646.032H639.762V663.44C639.762 665.659 640.85 666.768 643.026 666.768H652.626V674H642.45ZM695.84 674V627.28H709.728C712.885 627.28 715.616 627.877 717.92 629.072C720.267 630.267 722.08 631.952 723.36 634.128C724.64 636.304 725.28 638.885 725.28 641.872V659.344C725.28 662.288 724.64 664.869 723.36 667.088C722.08 669.264 720.267 670.971 717.92 672.208C715.616 673.403 712.885 674 709.728 674H695.84ZM703.84 666.64H709.728C712.032 666.64 713.867 666 715.232 664.72C716.597 663.397 717.28 661.605 717.28 659.344V641.872C717.28 639.653 716.597 637.904 715.232 636.624C713.867 635.301 712.032 634.64 709.728 634.64H703.84V666.64ZM746.055 674.64C743.068 674.64 740.466 674.085 738.247 672.976C736.071 671.824 734.386 670.224 733.191 668.176C732.039 666.085 731.463 663.632 731.463 660.816V640.464C731.463 637.648 732.039 635.216 733.191 633.168C734.386 631.077 736.071 629.477 738.247 628.368C740.466 627.216 743.068 626.64 746.055 626.64C749.084 626.64 751.687 627.216 753.863 628.368C756.039 629.477 757.703 631.077 758.855 633.168C760.05 635.216 760.647 637.627 760.647 640.4V660.816C760.647 663.632 760.05 666.085 758.855 668.176C757.703 670.224 756.039 671.824 753.863 672.976C751.687 674.085 749.084 674.64 746.055 674.64ZM746.055 667.6C748.231 667.6 749.874 667.024 750.983 665.872C752.092 664.677 752.647 662.992 752.647 660.816V640.464C752.647 638.245 752.092 636.56 750.983 635.408C749.874 634.256 748.231 633.68 746.055 633.68C743.879 633.68 742.236 634.256 741.127 635.408C740.018 636.56 739.463 638.245 739.463 640.464V660.816C739.463 662.992 740.018 664.677 741.127 665.872C742.279 667.024 743.922 667.6 746.055 667.6ZM766.254 674V627.28H775.726L780.27 642.128C780.739 643.621 781.123 644.987 781.422 646.224C781.721 647.461 781.913 648.357 781.998 648.912C782.083 648.357 782.275 647.461 782.574 646.224C782.873 644.987 783.235 643.621 783.662 642.128L788.014 627.28H797.486V674H789.998V659.472C789.998 657.339 790.062 655.013 790.19 652.496C790.318 649.979 790.467 647.461 790.638 644.944C790.809 642.427 791.001 640.037 791.214 637.776C791.47 635.515 791.683 633.531 791.854 631.824L785.582 653.904H778.286L771.822 631.824C772.035 633.445 772.249 635.365 772.462 637.584C772.675 639.76 772.867 642.107 773.038 644.624C773.251 647.099 773.422 649.616 773.55 652.176C773.678 654.736 773.742 657.168 773.742 659.472V674H766.254ZM853.756 674.64C850.769 674.64 848.145 674.085 845.884 672.976C843.665 671.824 841.937 670.224 840.7 668.176C839.505 666.085 838.908 663.632 838.908 660.816V640.464C838.908 637.605 839.505 635.152 840.7 633.104C841.937 631.056 843.665 629.477 845.884 628.368C848.145 627.216 850.769 626.64 853.756 626.64C856.785 626.64 859.388 627.216 861.564 628.368C863.783 629.477 865.511 631.056 866.748 633.104C867.985 635.152 868.604 637.605 868.604 640.464H860.54C860.54 638.245 859.943 636.56 858.748 635.408C857.596 634.256 855.932 633.68 853.756 633.68C851.58 633.68 849.895 634.256 848.7 635.408C847.505 636.56 846.908 638.224 846.908 640.4V660.816C846.908 662.992 847.505 664.677 848.7 665.872C849.895 667.024 851.58 667.6 853.756 667.6C855.932 667.6 857.596 667.024 858.748 665.872C859.943 664.677 860.54 662.992 860.54 660.816H868.604C868.604 663.589 867.985 666.021 866.748 668.112C865.511 670.203 863.783 671.824 861.564 672.976C859.388 674.085 856.785 674.64 853.756 674.64ZM889.315 674.576C886.328 674.576 883.726 674.021 881.507 672.912C879.331 671.76 877.624 670.16 876.387 668.112C875.192 666.021 874.595 663.568 874.595 660.752V652.048C874.595 649.232 875.192 646.8 876.387 644.752C877.624 642.661 879.331 641.061 881.507 639.952C883.726 638.8 886.328 638.224 889.315 638.224C892.344 638.224 894.947 638.8 897.123 639.952C899.299 641.061 900.984 642.661 902.179 644.752C903.416 646.8 904.035 649.211 904.035 651.984V660.752C904.035 663.568 903.416 666.021 902.179 668.112C900.984 670.16 899.299 671.76 897.123 672.912C894.947 674.021 892.344 674.576 889.315 674.576ZM889.315 667.6C891.448 667.6 893.091 667.024 894.243 665.872C895.438 664.677 896.035 662.971 896.035 660.752V652.048C896.035 649.787 895.438 648.08 894.243 646.928C893.091 645.776 891.448 645.2 889.315 645.2C887.224 645.2 885.582 645.776 884.387 646.928C883.192 648.08 882.595 649.787 882.595 652.048V660.752C882.595 662.971 883.192 664.677 884.387 665.872C885.582 667.024 887.224 667.6 889.315 667.6ZM909.258 674V638.8H915.786V643.536H917.13L916.042 644.688C916.042 642.725 916.597 641.147 917.706 639.952C918.815 638.757 920.245 638.16 921.994 638.16C923.871 638.16 925.322 638.928 926.346 640.464C927.413 642 927.946 644.069 927.946 646.672L926.538 643.536H928.714L927.882 644.688C927.882 642.725 928.437 641.147 929.546 639.952C930.655 638.757 932.127 638.16 933.962 638.16C936.138 638.16 937.866 638.971 939.146 640.592C940.426 642.213 941.066 644.411 941.066 647.184V674H934.026V647.504C934.026 646.352 933.77 645.456 933.258 644.816C932.746 644.133 931.999 643.792 931.018 643.792C930.079 643.792 929.333 644.112 928.778 644.752C928.266 645.392 928.01 646.309 928.01 647.504V674H922.25V647.504C922.25 646.309 921.994 645.392 921.482 644.752C920.97 644.112 920.223 643.792 919.242 643.792C918.261 643.792 917.514 644.112 917.002 644.752C916.533 645.392 916.298 646.309 916.298 647.504V674H909.258ZM946.673 685.52V638.8H954.481V645.52H956.273L954.481 647.376C954.481 644.517 955.334 642.277 957.041 640.656C958.748 638.992 961.052 638.16 963.953 638.16C967.494 638.16 970.332 639.376 972.465 641.808C974.598 644.24 975.665 647.504 975.665 651.6V661.136C975.665 663.867 975.174 666.256 974.193 668.304C973.254 670.309 971.91 671.867 970.161 672.976C968.412 674.085 966.342 674.64 963.953 674.64C961.052 674.64 958.748 673.829 957.041 672.208C955.334 670.544 954.481 668.283 954.481 665.424L956.273 667.28H954.417L954.673 675.664V685.52H946.673ZM961.137 667.728C963.185 667.728 964.785 667.131 965.937 665.936C967.089 664.741 967.665 663.035 967.665 660.816V651.984C967.665 649.765 967.089 648.059 965.937 646.864C964.785 645.669 963.185 645.072 961.137 645.072C959.132 645.072 957.553 645.691 956.401 646.928C955.249 648.123 954.673 649.808 954.673 651.984V660.816C954.673 662.992 955.249 664.699 956.401 665.936C957.553 667.131 959.132 667.728 961.137 667.728ZM996.76 674.576C993.773 674.576 991.171 674.021 988.952 672.912C986.776 671.76 985.069 670.16 983.832 668.112C982.637 666.021 982.04 663.568 982.04 660.752V652.048C982.04 649.232 982.637 646.8 983.832 644.752C985.069 642.661 986.776 641.061 988.952 639.952C991.171 638.8 993.773 638.224 996.76 638.224C999.789 638.224 1002.39 638.8 1004.57 639.952C1006.74 641.061 1008.43 642.661 1009.62 644.752C1010.86 646.8 1011.48 649.211 1011.48 651.984V660.752C1011.48 663.568 1010.86 666.021 1009.62 668.112C1008.43 670.16 1006.74 671.76 1004.57 672.912C1002.39 674.021 999.789 674.576 996.76 674.576ZM996.76 667.6C998.893 667.6 1000.54 667.024 1001.69 665.872C1002.88 664.677 1003.48 662.971 1003.48 660.752V652.048C1003.48 649.787 1002.88 648.08 1001.69 646.928C1000.54 645.776 998.893 645.2 996.76 645.2C994.669 645.2 993.027 645.776 991.832 646.928C990.637 648.08 990.04 649.787 990.04 652.048V660.752C990.04 662.971 990.637 664.677 991.832 665.872C993.027 667.024 994.669 667.6 996.76 667.6ZM1031.23 674.576C1028.54 674.576 1026.2 674.149 1024.19 673.296C1022.19 672.443 1020.61 671.269 1019.46 669.776C1018.35 668.24 1017.75 666.448 1017.66 664.4H1025.66C1025.75 665.509 1026.28 666.405 1027.26 667.088C1028.29 667.771 1029.61 668.112 1031.23 668.112H1034.05C1036.01 668.112 1037.48 667.728 1038.46 666.96C1039.44 666.192 1039.94 665.147 1039.94 663.824C1039.94 662.587 1039.49 661.627 1038.59 660.944C1037.74 660.219 1036.39 659.749 1034.56 659.536L1030.21 658.896C1026.2 658.341 1023.25 657.275 1021.38 655.696C1019.5 654.117 1018.56 651.749 1018.56 648.592C1018.56 645.307 1019.67 642.768 1021.89 640.976C1024.11 639.141 1027.37 638.224 1031.68 638.224H1034.11C1038.04 638.224 1041.17 639.099 1043.52 640.848C1045.87 642.597 1047.12 644.944 1047.3 647.888H1039.3C1039.17 646.949 1038.63 646.181 1037.7 645.584C1036.8 644.987 1035.6 644.688 1034.11 644.688H1031.68C1029.84 644.688 1028.5 645.029 1027.65 645.712C1026.84 646.352 1026.43 647.312 1026.43 648.592C1026.43 649.787 1026.79 650.683 1027.52 651.28C1028.24 651.835 1029.42 652.24 1031.04 652.496L1035.58 653.136C1039.76 653.733 1042.84 654.864 1044.8 656.528C1046.8 658.149 1047.81 660.56 1047.81 663.76C1047.81 667.173 1046.63 669.84 1044.29 671.76C1041.98 673.637 1038.57 674.576 1034.05 674.576H1031.23ZM1054.05 674V666.704H1066.34V646.032H1055.65V638.8H1074.02V666.704H1084.9V674H1054.05ZM1069.54 632.912C1067.92 632.912 1066.64 632.507 1065.7 631.696C1064.76 630.843 1064.29 629.712 1064.29 628.304C1064.29 626.896 1064.76 625.787 1065.7 624.976C1066.64 624.123 1067.92 623.696 1069.54 623.696C1071.16 623.696 1072.44 624.123 1073.38 624.976C1074.32 625.787 1074.79 626.896 1074.79 628.304C1074.79 629.712 1074.32 630.843 1073.38 631.696C1072.44 632.507 1071.16 632.912 1069.54 632.912ZM1108.05 674C1104.67 674 1102.03 673.061 1100.11 671.184C1098.23 669.307 1097.29 666.725 1097.29 663.44V646.032H1087.76V638.8H1097.29V628.88H1105.36V638.8H1118.86V646.032H1105.36V663.44C1105.36 665.659 1106.45 666.768 1108.62 666.768H1118.22V674H1108.05ZM1125.68 674V666.704H1137.97V646.032H1127.28V638.8H1145.65V666.704H1156.53V674H1125.68ZM1141.17 632.912C1139.55 632.912 1138.27 632.507 1137.33 631.696C1136.39 630.843 1135.92 629.712 1135.92 628.304C1135.92 626.896 1136.39 625.787 1137.33 624.976C1138.27 624.123 1139.55 623.696 1141.17 623.696C1142.79 623.696 1144.07 624.123 1145.01 624.976C1145.95 625.787 1146.42 626.896 1146.42 628.304C1146.42 629.712 1145.95 630.843 1145.01 631.696C1144.07 632.507 1142.79 632.912 1141.17 632.912ZM1175.84 674.576C1172.85 674.576 1170.25 674.021 1168.03 672.912C1165.85 671.76 1164.14 670.16 1162.91 668.112C1161.71 666.021 1161.12 663.568 1161.12 660.752V652.048C1161.12 649.232 1161.71 646.8 1162.91 644.752C1164.14 642.661 1165.85 641.061 1168.03 639.952C1170.25 638.8 1172.85 638.224 1175.84 638.224C1178.86 638.224 1181.47 638.8 1183.64 639.952C1185.82 641.061 1187.5 642.661 1188.7 644.752C1189.94 646.8 1190.56 649.211 1190.56 651.984V660.752C1190.56 663.568 1189.94 666.021 1188.7 668.112C1187.5 670.16 1185.82 671.76 1183.64 672.912C1181.47 674.021 1178.86 674.576 1175.84 674.576ZM1175.84 667.6C1177.97 667.6 1179.61 667.024 1180.76 665.872C1181.96 664.677 1182.56 662.971 1182.56 660.752V652.048C1182.56 649.787 1181.96 648.08 1180.76 646.928C1179.61 645.776 1177.97 645.2 1175.84 645.2C1173.74 645.2 1172.1 645.776 1170.91 646.928C1169.71 648.08 1169.12 649.787 1169.12 652.048V660.752C1169.12 662.971 1169.71 664.677 1170.91 665.872C1172.1 667.024 1173.74 667.6 1175.84 667.6ZM1197.38 674V638.8H1205.19V645.52H1207.36L1205.19 647.376C1205.19 644.475 1206.02 642.213 1207.68 640.592C1209.39 638.971 1211.71 638.16 1214.66 638.16C1218.11 638.16 1220.87 639.312 1222.91 641.616C1225 643.92 1226.05 647.013 1226.05 650.896V674H1218.05V651.728C1218.05 649.595 1217.5 647.952 1216.39 646.8C1215.28 645.648 1213.72 645.072 1211.71 645.072C1209.75 645.072 1208.19 645.669 1207.04 646.864C1205.93 648.059 1205.38 649.765 1205.38 651.984V674H1197.38ZM1247.47 674.64C1245.63 674.64 1244.16 674.107 1243.05 673.04C1241.98 671.973 1241.45 670.523 1241.45 668.688C1241.45 666.853 1241.98 665.403 1243.05 664.336C1244.16 663.227 1245.63 662.672 1247.47 662.672C1249.3 662.672 1250.75 663.227 1251.82 664.336C1252.93 665.403 1253.48 666.853 1253.48 668.688C1253.48 670.523 1252.93 671.973 1251.82 673.04C1250.75 674.107 1249.3 674.64 1247.47 674.64Z" fill="white"/>
<path d="M1634.28 220.832V213.6H1665.01V220.832H1634.28ZM1670.1 220.832V213.6H1700.82V220.832H1670.1ZM1705.91 220.832V213.6H1736.63V220.832H1705.91ZM1741.73 220.832V213.6H1772.45V220.832H1741.73ZM1777.55 220.832V213.6H1808.27V220.832H1777.55ZM2744.55 220.832V213.6H2775.27V220.832H2744.55ZM1598.47 303.04L1620.87 242.88H1629.19L1606.79 303.04H1598.47ZM1670.1 304.832V297.6H1700.82V304.832H1670.1ZM1705.91 304.832V297.6H1736.63V304.832H1705.91ZM1741.73 304.832V297.6H1772.45V304.832H1741.73ZM1777.55 304.832V297.6H1808.27V304.832H1777.55ZM1824.69 303.04V242.88H1832.75V303.04H1824.69ZM2720.06 303.04V242.88H2728.13V303.04H2720.06ZM2791.69 303.04V242.88H2799.76V303.04H2791.69ZM1573.98 387.04V326.88H1582.05V387.04H1573.98ZM1645.61 387.04V326.88H1653.68V387.04H1645.61ZM1846.59 388.832V381.6H1915.71V388.832H1846.59ZM1956.62 388.832V381.6H1987.34V388.832H1956.62ZM2028.25 388.832V381.6H2058.97V388.832H2028.25ZM2097.29 388.832V381.6H2166.41V388.832H2097.29ZM2207.32 388.832V381.6H2238.04V388.832H2207.32ZM2243.14 388.832V381.6H2273.86V388.832H2243.14ZM2278.95 388.832V381.6H2309.67V388.832H2278.95ZM2419.63 388.832V381.6H2488.75V388.832H2419.63ZM2529.66 388.832V381.6H2560.38V388.832H2529.66ZM2634.52 388.832V381.6H2703.64V388.832H2634.52ZM2720.06 387.04V326.88H2728.13V387.04H2720.06ZM2791.69 387.04V326.88H2799.76V387.04H2791.69ZM2852 388.832V381.6H2882.72V388.832H2852ZM2887.81 388.832V381.6H2918.53V388.832H2887.81ZM2923.63 388.832V381.6H2954.35V388.832H2923.63ZM1573.98 471.04V410.88H1582.05V471.04H1573.98ZM1645.61 471.04V410.88H1653.68V471.04H1645.61ZM1813.36 471.04L1835.76 410.88H1844.08L1821.68 471.04H1813.36ZM1884.99 472.832V465.6H1915.71V472.832H1884.99ZM1934.82 422.72L1927.4 413.76H1936.23L1943.08 422.72H1934.82ZM2003.76 471.04V410.88H2011.83V471.04H2003.76ZM2076.03 436.48L2075.2 427.264V417.28H2083.33V427.264L2082.56 436.48H2076.03ZM2099.88 472.832V465.6H2130.6V472.832H2099.88ZM2185.53 422.72L2178.1 413.76H2186.93L2193.78 422.72H2185.53ZM2243.14 472.832V465.6H2273.86V472.832H2243.14ZM2337.11 471.04L2314.77 410.88H2323.09L2345.43 471.04H2337.11ZM2386.4 471.04L2408.8 410.88H2417.12L2394.72 471.04H2386.4ZM2458.03 472.832V465.6H2488.75V472.832H2458.03ZM2507.86 422.72L2500.44 413.76H2509.27L2516.12 422.72H2507.86ZM2576.8 471.04V410.88H2584.87V471.04H2576.8ZM2601.29 471.04L2623.69 410.88H2632.01L2609.61 471.04H2601.29ZM2672.92 472.832V465.6H2703.64V472.832H2672.92ZM2722.75 422.72L2715.33 413.76H2724.16L2731.01 422.72H2722.75ZM2791.69 471.04V410.88H2799.76V471.04H2791.69ZM2816.18 471.04L2838.58 410.88H2846.9L2824.5 471.04H2816.18ZM2887.81 472.832V465.6H2918.53V472.832H2887.81ZM2981.78 471.04L2959.44 410.88H2967.76L2990.1 471.04H2981.78ZM1573.98 555.04V494.88H1582.05V555.04H1573.98ZM1645.61 555.04V494.88H1653.68V555.04H1645.61ZM1670.1 556.832V549.6H1700.82V556.832H1670.1ZM1705.91 556.832V549.6H1736.63V556.832H1705.91ZM1741.73 556.832V549.6H1772.45V556.832H1741.73ZM1788.87 555.04V494.88H1796.94V555.04H1788.87ZM1876.37 555.68C1869.89 553.973 1864.88 550.965 1861.33 546.656C1857.79 542.304 1856.02 537.013 1856.02 530.784V519.2C1856.02 515.104 1856.83 511.392 1858.45 508.064C1860.12 504.693 1862.47 501.835 1865.49 499.488C1868.57 497.099 1872.19 495.349 1876.37 494.24V502.112C1873.86 502.709 1871.66 503.797 1869.78 505.376C1867.95 506.955 1866.54 508.917 1865.56 511.264C1864.58 513.611 1864.09 516.256 1864.09 519.2V530.784C1864.09 533.643 1864.58 536.245 1865.56 538.592C1866.54 540.896 1867.95 542.837 1869.78 544.416C1871.66 545.952 1873.86 547.019 1876.37 547.616V555.68ZM1884.99 556.832V549.6H1915.71V556.832H1884.99ZM1932.13 555.04V494.88H1940.2V555.04H1932.13ZM2003.76 555.04V494.88H2011.83V555.04H2003.76ZM2075.39 555.04V494.88H2083.46V555.04H2075.39ZM2147.02 555.04V494.88H2155.09V555.04H2147.02ZM2218.65 555.04V494.88H2226.72V555.04H2218.65ZM2290.28 555.04V494.88H2298.35V555.04H2290.28ZM2361.91 555.04V494.88H2369.98V555.04H2361.91ZM2449.42 555.68C2442.93 553.973 2437.92 550.965 2434.38 546.656C2430.83 542.304 2429.06 537.013 2429.06 530.784V519.2C2429.06 515.104 2429.87 511.392 2431.5 508.064C2433.16 504.693 2435.51 501.835 2438.54 499.488C2441.61 497.099 2445.23 495.349 2449.42 494.24V502.112C2446.9 502.709 2444.7 503.797 2442.82 505.376C2440.99 506.955 2439.58 508.917 2438.6 511.264C2437.62 513.611 2437.13 516.256 2437.13 519.2V530.784C2437.13 533.643 2437.62 536.245 2438.6 538.592C2439.58 540.896 2440.99 542.837 2442.82 544.416C2444.7 545.952 2446.9 547.019 2449.42 547.616V555.68ZM2458.03 556.832V549.6H2488.75V556.832H2458.03ZM2505.17 555.04V494.88H2513.24V555.04H2505.17ZM2576.8 555.04V494.88H2584.87V555.04H2576.8ZM2664.31 555.68C2657.82 553.973 2652.81 550.965 2649.27 546.656C2645.72 542.304 2643.95 537.013 2643.95 530.784V519.2C2643.95 515.104 2644.76 511.392 2646.39 508.064C2648.05 504.693 2650.4 501.835 2653.43 499.488C2656.5 497.099 2660.12 495.349 2664.31 494.24V502.112C2661.79 502.709 2659.59 503.797 2657.71 505.376C2655.88 506.955 2654.47 508.917 2653.49 511.264C2652.51 513.611 2652.02 516.256 2652.02 519.2V530.784C2652.02 533.643 2652.51 536.245 2653.49 538.592C2654.47 540.896 2655.88 542.837 2657.71 544.416C2659.59 545.952 2661.79 547.019 2664.31 547.616V555.68ZM2672.92 556.832V549.6H2703.64V556.832H2672.92ZM2720.06 555.04V494.88H2728.13V555.04H2720.06ZM2791.69 555.04V494.88H2799.76V555.04H2791.69ZM2879.2 555.68C2872.71 553.973 2867.7 550.965 2864.16 546.656C2860.61 542.304 2858.84 537.013 2858.84 530.784V519.2C2858.84 515.104 2859.65 511.392 2861.28 508.064C2862.94 504.693 2865.29 501.835 2868.32 499.488C2871.39 497.099 2875.01 495.349 2879.2 494.24V502.112C2876.68 502.709 2874.48 503.797 2872.6 505.376C2870.77 506.955 2869.36 508.917 2868.38 511.264C2867.4 513.611 2866.91 516.256 2866.91 519.2V530.784C2866.91 533.643 2867.4 536.245 2868.38 538.592C2869.36 540.896 2870.77 542.837 2872.6 544.416C2874.48 545.952 2876.68 547.019 2879.2 547.616V555.68ZM2887.81 556.832V549.6H2918.53V556.832H2887.81ZM2927.15 555.68V547.616C2929.71 547.019 2931.9 545.952 2933.74 544.416C2935.57 542.837 2936.98 540.896 2937.96 538.592C2938.94 536.245 2939.43 533.643 2939.43 530.784V519.2C2939.43 516.256 2938.94 513.611 2937.96 511.264C2936.98 508.917 2935.57 506.955 2933.74 505.376C2931.9 503.797 2929.71 502.709 2927.15 502.112V494.24C2931.37 495.349 2935 497.099 2938.03 499.488C2941.05 501.835 2943.38 504.693 2945 508.064C2946.67 511.392 2947.5 515.104 2947.5 519.2V530.784C2947.5 537.013 2945.73 542.304 2942.19 546.656C2938.64 550.965 2933.63 553.973 2927.15 555.68ZM3006.58 555.04V494.88H3014.65V555.04H3006.58ZM1620.81 639.04L1598.47 578.88H1606.79L1629.13 639.04H1620.81ZM1634.28 640.832V633.6H1665.01V640.832H1634.28ZM1670.1 640.832V633.6H1700.82V640.832H1670.1ZM1705.91 640.832V633.6H1736.63V640.832H1705.91ZM1741.73 640.832V633.6H1772.45V640.832H1741.73ZM1777.55 640.832V633.6H1808.27V640.832H1777.55ZM1835.7 639.04L1813.36 578.88H1821.68L1844.02 639.04H1835.7ZM1846.59 640.832V633.6H1915.71V640.832H1846.59ZM1926.56 642.24L1931.68 622.336H1941.92L1933.6 642.24H1926.56ZM1961.05 640.832V633.6H2001.18V584H2009.24V633.6H2049.37V640.832H1961.05ZM2075.39 639.04V578.88H2083.46V639.04H2075.39ZM2147.02 639.04V578.88H2155.09V639.04H2147.02ZM2171.51 640.832V633.6H2202.23V640.832H2171.51ZM2218.65 639.04V578.88H2226.72V639.04H2218.65ZM2290.28 639.04V578.88H2298.35V639.04H2290.28ZM2314.77 640.832V633.6H2345.49V640.832H2314.77ZM2361.91 639.04V578.88H2369.98V639.04H2361.91ZM2408.74 639.04L2386.4 578.88H2394.72L2417.06 639.04H2408.74ZM2419.63 640.832V633.6H2488.75V640.832H2419.63ZM2499.61 642.24L2504.73 622.336H2514.97L2506.65 642.24H2499.61ZM2529.66 640.832V633.6H2560.38V640.832H2529.66ZM2576.8 639.04V578.88H2584.87V639.04H2576.8ZM2623.63 639.04L2601.29 578.88H2609.61L2631.95 639.04H2623.63ZM2634.52 640.832V633.6H2703.64V640.832H2634.52ZM2714.5 642.24L2719.62 622.336H2729.86L2721.54 642.24H2714.5ZM2744.55 640.832V633.6H2775.27V640.832H2744.55ZM2791.69 639.04V578.88H2799.76V639.04H2791.69ZM2838.52 639.04L2816.18 578.88H2824.5L2846.84 639.04H2838.52ZM2852 640.832V633.6H2882.72V640.832H2852ZM2887.81 640.832V633.6H2918.53V640.832H2887.81ZM2923.63 640.832V633.6H2954.35V640.832H2923.63ZM2959.44 639.04L2981.84 578.88H2990.16L2967.76 639.04H2959.44Z" fill="#00DDFF"/>
</svg>
